<svg width="242" height="242" viewBox="0 0 242 242" fill="none" xmlns="http://www.w3.org/2000/svg">
<rect x="9" y="11" width="223" height="220" rx="25" fill="#131313"/>
<path d="M115.628 76.5455V166H99.2918L60.3738 109.698H59.7186V166H40.8056V76.5455H57.4036L96.0158 132.804H96.8021V76.5455H115.628ZM210.182 107.863H191.05C190.701 105.388 189.988 103.19 188.91 101.268C187.833 99.3168 186.45 97.657 184.761 96.2884C183.072 94.9197 181.121 93.8714 178.908 93.1435C176.724 92.4155 174.35 92.0515 171.788 92.0515C167.158 92.0515 163.125 93.2017 159.689 95.5021C156.253 97.7734 153.588 101.093 151.696 105.461C149.803 109.8 148.856 115.07 148.856 121.273C148.856 127.65 149.803 133.008 151.696 137.347C153.617 141.685 156.296 144.961 159.733 147.174C163.169 149.387 167.143 150.494 171.657 150.494C174.19 150.494 176.534 150.159 178.689 149.489C180.873 148.82 182.81 147.844 184.499 146.563C186.187 145.252 187.585 143.665 188.692 141.802C189.827 139.938 190.614 137.812 191.05 135.425L210.182 135.512C209.687 139.618 208.449 143.578 206.469 147.393C204.518 151.178 201.883 154.571 198.563 157.57C195.273 160.54 191.342 162.899 186.77 164.646C182.227 166.364 177.088 167.223 171.351 167.223C163.372 167.223 156.238 165.418 149.948 161.807C143.688 158.196 138.738 152.969 135.098 146.126C131.487 139.283 129.681 130.999 129.681 121.273C129.681 111.518 131.516 103.219 135.185 96.3757C138.854 89.5327 143.833 84.3203 150.123 80.7386C156.413 77.1278 163.489 75.3224 171.351 75.3224C176.534 75.3224 181.339 76.0504 185.765 77.5064C190.22 78.9624 194.166 81.0881 197.602 83.8835C201.038 86.6499 203.834 90.0423 205.989 94.0607C208.173 98.0792 209.57 102.68 210.182 107.863Z" fill="white"/>
</svg>
